<svg xmlns="http://www.w3.org/2000/svg" viewBox="0 0 1200 600">
  <defs>
    <linearGradient id="skyGradient" x1="0%" y1="0%" x2="0%" y2="100%">
      <stop offset="0%" style="stop-color:#87CEEB;stop-opacity:1" />
      <stop offset="100%" style="stop-color:#B0C4DE;stop-opacity:1" />
    </linearGradient>
    <linearGradient id="groundGradient" x1="0%" y1="0%" x2="0%" y2="100%">
      <stop offset="0%" style="stop-color:#90EE90;stop-opacity:1" />
      <stop offset="100%" style="stop-color:#228B22;stop-opacity:1" />
    </linearGradient>
  </defs>
  
  <!-- Небо -->
  <rect width="1200" height="400" fill="url(#skyGradient)"/>
  
  <!-- Земля -->
  <rect y="400" width="1200" height="200" fill="url(#groundGradient)"/>
  
  <!-- Ворота кладбища -->
  <g transform="translate(500, 200)">
    <!-- Столбы ворот -->
    <rect x="0" y="0" width="20" height="150" fill="#8B4513"/>
    <rect x="180" y="0" width="20" height="150" fill="#8B4513"/>
    
    <!-- Верхняя часть ворот -->
    <rect x="20" y="0" width="160" height="20" fill="#8B4513"/>
    
    <!-- Створки ворот -->
    <rect x="25" y="20" width="70" height="130" fill="#654321" stroke="#8B4513" stroke-width="2"/>
    <rect x="105" y="20" width="70" height="130" fill="#654321" stroke="#8B4513" stroke-width="2"/>
    
    <!-- Декоративные элементы -->
    <circle cx="60" cy="85" r="8" fill="#FFD700"/>
    <circle cx="140" cy="85" r="8" fill="#FFD700"/>
  </g>
  
  <!-- Деревья -->
  <g transform="translate(100, 250)">
    <rect x="20" y="50" width="10" height="80" fill="#8B4513"/>
    <circle cx="25" cy="50" r="30" fill="#228B22"/>
  </g>
  
  <g transform="translate(950, 280)">
    <rect x="20" y="50" width="10" height="60" fill="#8B4513"/>
    <circle cx="25" cy="50" r="25" fill="#228B22"/>
  </g>
  
  <!-- Памятники вдали -->
  <g transform="translate(300, 350)">
    <rect x="0" y="0" width="15" height="40" fill="#696969"/>
    <rect x="30" y="0" width="12" height="35" fill="#696969"/>
    <rect x="60" y="0" width="18" height="45" fill="#696969"/>
  </g>
  
  <!-- Церковь -->
  <g transform="translate(750, 200)">
    <!-- Основное здание -->
    <rect x="0" y="50" width="80" height="100" fill="#DEB887"/>
    
    <!-- Купол -->
    <ellipse cx="40" cy="50" rx="25" ry="15" fill="#FFD700"/>
    
    <!-- Крест -->
    <rect x="38" y="35" width="4" height="20" fill="#8B4513"/>
    <rect x="32" y="41" width="16" height="4" fill="#8B4513"/>
  </g>
  
  <!-- Облака -->
  <ellipse cx="200" cy="100" rx="40" ry="20" fill="white" opacity="0.8"/>
  <ellipse cx="220" cy="100" rx="35" ry="18" fill="white" opacity="0.8"/>
  
  <ellipse cx="800" cy="80" rx="45" ry="25" fill="white" opacity="0.8"/>
  <ellipse cx="825" cy="80" rx="30" ry="15" fill="white" opacity="0.8"/>
  
  <!-- Тропинки -->
  <path d="M 0 500 Q 300 480 600 500 Q 900 520 1200 500" stroke="#8B7355" stroke-width="8" fill="none"/>
</svg> 