<svg xmlns="http://www.w3.org/2000/svg" viewBox="0 0 200 200">
  <!-- Фон -->
  <rect width="200" height="200" fill="#F0F8FF"/>
  
  <!-- Лопата -->
  <g transform="translate(30, 40)">
    <!-- Ручка -->
    <rect x="0" y="0" width="4" height="100" fill="#8B4513"/>
    <!-- Лезвие -->
    <ellipse cx="2" cy="105" rx="8" ry="15" fill="#C0C0C0" stroke="#808080" stroke-width="1"/>
  </g>
  
  <!-- Грабли -->
  <g transform="translate(60, 50)">
    <!-- Ручка -->
    <rect x="0" y="0" width="3" height="80" fill="#8B4513"/>
    <!-- Зубья -->
    <rect x="-8" y="80" width="2" height="10" fill="#C0C0C0"/>
    <rect x="-4" y="80" width="2" height="10" fill="#C0C0C0"/>
    <rect x="0" y="80" width="2" height="10" fill="#C0C0C0"/>
    <rect x="4" y="80" width="2" height="10" fill="#C0C0C0"/>
    <rect x="8" y="80" width="2" height="10" fill="#C0C0C0"/>
    <!-- Основание -->
    <rect x="-10" y="80" width="22" height="3" fill="#C0C0C0"/>
  </g>
  
  <!-- Тачка -->
  <g transform="translate(100, 80)">
    <!-- Колесо -->
    <circle cx="0" cy="40" r="20" fill="#2F4F4F" stroke="#000" stroke-width="2"/>
    <circle cx="0" cy="40" r="3" fill="#000"/>
    <!-- Корыто -->
    <path d="M 0 20 L 50 20 L 45 40 L 5 40 Z" fill="#8B4513" stroke="#654321" stroke-width="1"/>
    <!-- Ручки -->
    <rect x="45" y="15" width="25" height="3" fill="#8B4513"/>
    <rect x="45" y="42" width="25" height="3" fill="#8B4513"/>
  </g>
  
  <!-- Лейка -->
  <g transform="translate(140, 120)">
    <!-- Корпус -->
    <ellipse cx="15" cy="15" rx="18" ry="12" fill="#228B22" stroke="#006400" stroke-width="1"/>
    <!-- Ручка -->
    <path d="M 33 15 Q 40 10 40 20" stroke="#228B22" stroke-width="3" fill="none"/>
    <!-- Носик -->
    <rect x="0" y="13" width="15" height="4" fill="#228B22"/>
    <!-- Отверстия -->
    <circle cx="2" cy="15" r="1" fill="#006400"/>
    <circle cx="5" cy="13" r="1" fill="#006400"/>
    <circle cx="5" cy="17" r="1" fill="#006400"/>
    <circle cx="8" cy="15" r="1" fill="#006400"/>
  </g>
  
  <!-- Метла -->
  <g transform="translate(170, 30)">
    <!-- Ручка -->
    <rect x="0" y="0" width="3" height="90" fill="#8B4513"/>
    <!-- Щетина -->
    <rect x="-8" y="90" width="19" height="15" fill="#DAA520"/>
    <!-- Линии щетины -->
    <line x1="-6" y1="90" x2="-6" y2="105" stroke="#B8860B" stroke-width="0.5"/>
    <line x1="-2" y1="90" x2="-2" y2="105" stroke="#B8860B" stroke-width="0.5"/>
    <line x1="2" y1="90" x2="2" y2="105" stroke="#B8860B" stroke-width="0.5"/>
    <line x1="6" y1="90" x2="6" y2="105" stroke="#B8860B" stroke-width="0.5"/>
    <line x1="10" y1="90" x2="10" y2="105" stroke="#B8860B" stroke-width="0.5"/>
  </g>
  
  <!-- Ведро -->
  <g transform="translate(20, 140)">
    <!-- Корпус -->
    <rect x="0" y="10" width="25" height="30" rx="2" fill="#696969" stroke="#2F4F4F" stroke-width="1"/>
    <!-- Ручка -->
    <path d="M 2 15 Q 12.5 5 23 15" stroke="#2F4F4F" stroke-width="2" fill="none"/>
    <!-- Вода -->
    <rect x="2" y="12" width="21" height="26" fill="#4169E1" opacity="0.7"/>
  </g>
  
  <!-- Садовые ножницы -->
  <g transform="translate(80, 140) rotate(45)">
    <!-- Лезвие 1 -->
    <rect x="0" y="0" width="25" height="3" fill="#C0C0C0"/>
    <!-- Лезвие 2 -->
    <rect x="0" y="5" width="25" height="3" fill="#C0C0C0"/>
    <!-- Ручки -->
    <rect x="20" y="-2" width="15" height="2" fill="#8B4513"/>
    <rect x="20" y="7" width="15" height="2" fill="#8B4513"/>
    <!-- Болт -->
    <circle cx="22" cy="3.5" r="2" fill="#2F4F4F"/>
  </g>
  
  <!-- Надпись -->
  <text x="100" y="190" font-family="Arial" font-size="12" font-weight="bold" text-anchor="middle" fill="#2F4F4F">УСЛУГИ ПО УХОДУ</text>
</svg> 